<svg width="321" height="177" viewBox="0 0 321 177" fill="none" xmlns="http://www.w3.org/2000/svg">
<path d="M130.5 62C130.5 59.5147 132.515 57.5 135 57.5H226C228.485 57.5 230.5 59.5147 230.5 62V162C230.5 164.485 228.485 166.5 226 166.5H135C132.515 166.5 130.5 164.485 130.5 162V62Z" fill="#CEECDC" stroke="black"/>
<path d="M179.654 101.129H178.103C178.044 100.798 177.933 100.506 177.77 100.254C177.608 100.002 177.409 99.7886 177.174 99.6129C176.938 99.4373 176.675 99.3047 176.383 99.2152C176.095 99.1257 175.788 99.081 175.463 99.081C174.877 99.081 174.351 99.2285 173.887 99.5234C173.427 99.8184 173.062 100.251 172.794 100.821C172.528 101.391 172.396 102.087 172.396 102.909C172.396 103.738 172.528 104.437 172.794 105.007C173.062 105.577 173.428 106.008 173.892 106.3C174.356 106.591 174.878 106.737 175.458 106.737C175.78 106.737 176.085 106.694 176.373 106.608C176.665 106.518 176.928 106.388 177.164 106.215C177.399 106.043 177.598 105.832 177.76 105.584C177.926 105.332 178.04 105.044 178.103 104.719L179.654 104.724C179.572 105.224 179.411 105.685 179.172 106.106C178.937 106.523 178.634 106.885 178.262 107.19C177.894 107.491 177.474 107.725 177 107.891C176.526 108.056 176.009 108.139 175.448 108.139C174.567 108.139 173.781 107.93 173.092 107.513C172.402 107.092 171.859 106.49 171.461 105.708C171.067 104.926 170.87 103.993 170.87 102.909C170.87 101.822 171.068 100.889 171.466 100.11C171.864 99.3279 172.407 98.728 173.097 98.3104C173.786 97.8894 174.57 97.679 175.448 97.679C175.989 97.679 176.492 97.7569 176.96 97.9126C177.43 98.0651 177.853 98.2905 178.228 98.5888C178.602 98.8838 178.912 99.245 179.157 99.6726C179.402 100.097 179.568 100.582 179.654 101.129ZM181.373 108V100.364H182.81V101.577H182.89C183.029 101.166 183.274 100.843 183.625 100.607C183.98 100.369 184.381 100.249 184.829 100.249C184.921 100.249 185.031 100.253 185.157 100.259C185.286 100.266 185.387 100.274 185.46 100.284V101.706C185.4 101.689 185.294 101.671 185.142 101.651C184.989 101.628 184.837 101.616 184.684 101.616C184.333 101.616 184.02 101.691 183.745 101.84C183.473 101.986 183.258 102.19 183.098 102.452C182.939 102.71 182.86 103.005 182.86 103.337V108H181.373ZM189.69 108.154C188.974 108.154 188.349 107.99 187.815 107.662C187.282 107.334 186.867 106.875 186.572 106.285C186.277 105.695 186.13 105.005 186.13 104.217C186.13 103.424 186.277 102.732 186.572 102.138C186.867 101.545 187.282 101.085 187.815 100.756C188.349 100.428 188.974 100.264 189.69 100.264C190.405 100.264 191.03 100.428 191.564 100.756C192.097 101.085 192.512 101.545 192.807 102.138C193.102 102.732 193.249 103.424 193.249 104.217C193.249 105.005 193.102 105.695 192.807 106.285C192.512 106.875 192.097 107.334 191.564 107.662C191.03 107.99 190.405 108.154 189.69 108.154ZM189.695 106.906C190.159 106.906 190.543 106.784 190.848 106.538C191.153 106.293 191.378 105.967 191.524 105.559C191.673 105.151 191.748 104.702 191.748 104.212C191.748 103.724 191.673 103.277 191.524 102.869C191.378 102.458 191.153 102.129 190.848 101.88C190.543 101.631 190.159 101.507 189.695 101.507C189.227 101.507 188.839 101.631 188.531 101.88C188.226 102.129 187.999 102.458 187.85 102.869C187.704 103.277 187.631 103.724 187.631 104.212C187.631 104.702 187.704 105.151 187.85 105.559C187.999 105.967 188.226 106.293 188.531 106.538C188.839 106.784 189.227 106.906 189.695 106.906ZM200.631 102.228L199.283 102.467C199.227 102.294 199.138 102.13 199.015 101.974C198.896 101.819 198.733 101.691 198.528 101.592C198.322 101.492 198.065 101.442 197.757 101.442C197.336 101.442 196.985 101.537 196.703 101.726C196.421 101.911 196.281 102.152 196.281 102.447C196.281 102.702 196.375 102.907 196.564 103.063C196.753 103.219 197.058 103.347 197.479 103.446L198.692 103.724C199.395 103.887 199.918 104.137 200.263 104.475C200.608 104.813 200.78 105.252 200.78 105.793C200.78 106.25 200.647 106.658 200.382 107.016C200.12 107.37 199.754 107.649 199.283 107.851C198.816 108.053 198.274 108.154 197.658 108.154C196.803 108.154 196.105 107.972 195.565 107.607C195.024 107.239 194.693 106.717 194.57 106.041L196.007 105.822C196.097 106.197 196.281 106.48 196.559 106.673C196.837 106.862 197.2 106.956 197.648 106.956C198.135 106.956 198.524 106.855 198.816 106.653C199.108 106.447 199.254 106.197 199.254 105.902C199.254 105.663 199.164 105.463 198.985 105.3C198.81 105.138 198.539 105.015 198.175 104.933L196.882 104.649C196.17 104.487 195.643 104.228 195.301 103.874C194.963 103.519 194.794 103.07 194.794 102.526C194.794 102.076 194.92 101.681 195.172 101.343C195.424 101.005 195.772 100.741 196.216 100.553C196.66 100.36 197.169 100.264 197.742 100.264C198.568 100.264 199.217 100.443 199.691 100.801C200.165 101.156 200.478 101.631 200.631 102.228ZM208.137 102.228L206.789 102.467C206.733 102.294 206.643 102.13 206.521 101.974C206.402 101.819 206.239 101.691 206.034 101.592C205.828 101.492 205.571 101.442 205.263 101.442C204.842 101.442 204.491 101.537 204.209 101.726C203.927 101.911 203.786 102.152 203.786 102.447C203.786 102.702 203.881 102.907 204.07 103.063C204.259 103.219 204.564 103.347 204.985 103.446L206.198 103.724C206.9 103.887 207.424 104.137 207.769 104.475C208.113 104.813 208.286 105.252 208.286 105.793C208.286 106.25 208.153 106.658 207.888 107.016C207.626 107.37 207.26 107.649 206.789 107.851C206.322 108.053 205.78 108.154 205.164 108.154C204.309 108.154 203.611 107.972 203.071 107.607C202.53 107.239 202.199 106.717 202.076 106.041L203.513 105.822C203.603 106.197 203.786 106.48 204.065 106.673C204.343 106.862 204.706 106.956 205.154 106.956C205.641 106.956 206.03 106.855 206.322 106.653C206.614 106.447 206.759 106.197 206.759 105.902C206.759 105.663 206.67 105.463 206.491 105.3C206.315 105.138 206.045 105.015 205.681 104.933L204.388 104.649C203.675 104.487 203.148 104.228 202.807 103.874C202.469 103.519 202.3 103.07 202.3 102.526C202.3 102.076 202.426 101.681 202.678 101.343C202.93 101.005 203.278 100.741 203.722 100.553C204.166 100.36 204.675 100.264 205.248 100.264C206.073 100.264 206.723 100.443 207.197 100.801C207.671 101.156 207.984 101.631 208.137 102.228ZM160.608 125H158.977L162.641 114.818H164.416L168.08 125H166.449L163.571 116.668H163.491L160.608 125ZM160.881 121.013H166.171V122.305H160.881V121.013ZM172.517 117.364V118.557H168.346V117.364H172.517ZM169.464 115.534H170.951V122.758C170.951 123.046 170.994 123.263 171.08 123.409C171.166 123.552 171.277 123.649 171.413 123.702C171.553 123.752 171.703 123.777 171.866 123.777C171.985 123.777 172.089 123.769 172.179 123.752C172.268 123.736 172.338 123.722 172.388 123.712L172.656 124.94C172.57 124.973 172.447 125.007 172.288 125.04C172.129 125.076 171.93 125.096 171.692 125.099C171.301 125.106 170.936 125.036 170.598 124.891C170.26 124.745 169.987 124.519 169.778 124.214C169.569 123.91 169.464 123.527 169.464 123.066V115.534ZM177.726 117.364V118.557H173.555V117.364H177.726ZM174.673 115.534H176.16V122.758C176.16 123.046 176.203 123.263 176.289 123.409C176.375 123.552 176.486 123.649 176.622 123.702C176.762 123.752 176.912 123.777 177.075 123.777C177.194 123.777 177.298 123.769 177.388 123.752C177.477 123.736 177.547 123.722 177.597 123.712L177.865 124.94C177.779 124.973 177.656 125.007 177.497 125.04C177.338 125.076 177.139 125.096 176.901 125.099C176.51 125.106 176.145 125.036 175.807 124.891C175.469 124.745 175.195 124.519 174.987 124.214C174.778 123.91 174.673 123.527 174.673 123.066V115.534ZM182.58 125.154C181.827 125.154 181.179 124.993 180.636 124.672C180.095 124.347 179.678 123.891 179.383 123.305C179.091 122.715 178.945 122.024 178.945 121.232C178.945 120.449 179.091 119.76 179.383 119.163C179.678 118.567 180.089 118.101 180.616 117.766C181.146 117.432 181.766 117.264 182.475 117.264C182.906 117.264 183.324 117.335 183.728 117.478C184.132 117.621 184.495 117.844 184.817 118.149C185.138 118.454 185.392 118.85 185.577 119.337C185.763 119.821 185.856 120.41 185.856 121.102V121.629H179.786V120.516H184.399C184.399 120.125 184.32 119.778 184.161 119.477C184.001 119.172 183.778 118.931 183.489 118.756C183.204 118.58 182.87 118.492 182.485 118.492C182.067 118.492 181.703 118.595 181.391 118.8C181.083 119.003 180.844 119.268 180.675 119.596C180.51 119.921 180.427 120.274 180.427 120.655V121.525C180.427 122.035 180.516 122.469 180.695 122.827C180.878 123.185 181.131 123.459 181.456 123.648C181.781 123.833 182.16 123.926 182.594 123.926C182.876 123.926 183.133 123.886 183.365 123.807C183.597 123.724 183.798 123.601 183.967 123.439C184.136 123.277 184.265 123.076 184.354 122.837L185.761 123.091C185.649 123.505 185.446 123.868 185.155 124.18C184.866 124.488 184.504 124.728 184.066 124.901C183.632 125.07 183.136 125.154 182.58 125.154ZM188.992 120.466V125H187.505V117.364H188.932V118.607H189.026C189.202 118.202 189.477 117.877 189.852 117.632C190.23 117.387 190.705 117.264 191.279 117.264C191.799 117.264 192.255 117.374 192.646 117.592C193.037 117.808 193.34 118.129 193.556 118.557C193.771 118.984 193.879 119.513 193.879 120.143V125H192.392V120.322C192.392 119.768 192.248 119.336 191.96 119.024C191.671 118.709 191.275 118.552 190.771 118.552C190.427 118.552 190.12 118.626 189.852 118.776C189.587 118.925 189.376 119.143 189.22 119.432C189.068 119.717 188.992 120.062 188.992 120.466ZM199.437 117.364V118.557H195.266V117.364H199.437ZM196.384 115.534H197.871V122.758C197.871 123.046 197.914 123.263 198 123.409C198.086 123.552 198.197 123.649 198.333 123.702C198.472 123.752 198.623 123.777 198.786 123.777C198.905 123.777 199.009 123.769 199.099 123.752C199.188 123.736 199.258 123.722 199.308 123.712L199.576 124.94C199.49 124.973 199.367 125.007 199.208 125.04C199.049 125.076 198.85 125.096 198.612 125.099C198.221 125.106 197.856 125.036 197.518 124.891C197.18 124.745 196.906 124.519 196.698 124.214C196.489 123.91 196.384 123.527 196.384 123.066V115.534ZM201.081 125V117.364H202.568V125H201.081ZM201.832 116.185C201.574 116.185 201.351 116.099 201.166 115.927C200.984 115.751 200.892 115.542 200.892 115.3C200.892 115.055 200.984 114.846 201.166 114.674C201.351 114.498 201.574 114.411 201.832 114.411C202.091 114.411 202.311 114.498 202.493 114.674C202.679 114.846 202.772 115.055 202.772 115.3C202.772 115.542 202.679 115.751 202.493 115.927C202.311 116.099 202.091 116.185 201.832 116.185ZM207.784 125.154C207.068 125.154 206.444 124.99 205.91 124.662C205.376 124.334 204.962 123.875 204.667 123.285C204.372 122.695 204.225 122.005 204.225 121.217C204.225 120.424 204.372 119.732 204.667 119.138C204.962 118.545 205.376 118.085 205.91 117.756C206.444 117.428 207.068 117.264 207.784 117.264C208.5 117.264 209.125 117.428 209.659 117.756C210.192 118.085 210.606 118.545 210.901 119.138C211.196 119.732 211.344 120.424 211.344 121.217C211.344 122.005 211.196 122.695 210.901 123.285C210.606 123.875 210.192 124.334 209.659 124.662C209.125 124.99 208.5 125.154 207.784 125.154ZM207.789 123.906C208.253 123.906 208.638 123.784 208.943 123.538C209.248 123.293 209.473 122.967 209.619 122.559C209.768 122.151 209.843 121.702 209.843 121.212C209.843 120.724 209.768 120.277 209.619 119.869C209.473 119.458 209.248 119.129 208.943 118.88C208.638 118.631 208.253 118.507 207.789 118.507C207.322 118.507 206.934 118.631 206.626 118.88C206.321 119.129 206.094 119.458 205.945 119.869C205.799 120.277 205.726 120.724 205.726 121.212C205.726 121.702 205.799 122.151 205.945 122.559C206.094 122.967 206.321 123.293 206.626 123.538C206.934 123.784 207.322 123.906 207.789 123.906ZM214.49 120.466V125H213.003V117.364H214.43V118.607H214.525C214.7 118.202 214.975 117.877 215.35 117.632C215.728 117.387 216.203 117.264 216.777 117.264C217.297 117.264 217.753 117.374 218.144 117.592C218.535 117.808 218.838 118.129 219.054 118.557C219.269 118.984 219.377 119.513 219.377 120.143V125H217.89V120.322C217.89 119.768 217.746 119.336 217.458 119.024C217.169 118.709 216.773 118.552 216.27 118.552C215.925 118.552 215.618 118.626 215.35 118.776C215.085 118.925 214.874 119.143 214.718 119.432C214.566 119.717 214.49 120.062 214.49 120.466Z" fill="black"/>
<rect y="62" width="12" height="99" rx="3" fill="#D9D9D9"/>
<rect x="1.5" y="64.5" width="9" height="9" rx="2.5" fill="#C8BCF8" stroke="black"/>
<rect x="1.5" y="76.5" width="9" height="9" rx="2.5" fill="#BCC9F8" stroke="black"/>
<rect x="1.5" y="88.5" width="9" height="9" rx="2.5" fill="#BCE2F8" stroke="black"/>
<rect x="1.5" y="100.5" width="9" height="9" rx="2.5" fill="#BCF8E2" stroke="black"/>
<rect x="1.5" y="113.5" width="9" height="9" rx="2.5" fill="#F3F8BC" stroke="black"/>
<rect x="1.5" y="125.5" width="9" height="9" rx="2.5" fill="#F8E7BC" stroke="black"/>
<rect x="1.5" y="137.5" width="9" height="9" rx="2.5" fill="#F8CABC" stroke="black"/>
<rect x="1.5" y="149.5" width="9" height="9" rx="2.5" fill="#F8BCBC" stroke="black"/>
<rect x="13" y="62" width="12" height="99" rx="3" fill="#D9D9D9"/>
<rect x="14.5" y="64.5" width="9" height="9" rx="2.5" fill="#C8BCF8" stroke="black"/>
<rect x="14.5" y="76.5" width="9" height="9" rx="2.5" fill="#BCC9F8" stroke="black"/>
<rect x="14.5" y="88.5" width="9" height="9" rx="2.5" fill="#BCE2F8" stroke="black"/>
<rect x="14.5" y="100.5" width="9" height="9" rx="2.5" fill="#BCF8E2" stroke="black"/>
<rect x="14.5" y="113.5" width="9" height="9" rx="2.5" fill="#F3F8BC" stroke="black"/>
<rect x="14.5" y="125.5" width="9" height="9" rx="2.5" fill="#F8E7BC" stroke="black"/>
<rect x="14.5" y="137.5" width="9" height="9" rx="2.5" fill="#F8CABC" stroke="black"/>
<rect x="14.5" y="149.5" width="9" height="9" rx="2.5" fill="#F8BCBC" stroke="black"/>
<rect x="26" y="62" width="12" height="99" rx="3" fill="#D9D9D9"/>
<rect x="27.5" y="64.5" width="9" height="9" rx="2.5" fill="#C8BCF8" stroke="black"/>
<rect x="27.5" y="76.5" width="9" height="9" rx="2.5" fill="#BCC9F8" stroke="black"/>
<rect x="27.5" y="88.5" width="9" height="9" rx="2.5" fill="#BCE2F8" stroke="black"/>
<rect x="27.5" y="100.5" width="9" height="9" rx="2.5" fill="#BCF8E2" stroke="black"/>
<rect x="27.5" y="113.5" width="9" height="9" rx="2.5" fill="#F3F8BC" stroke="black"/>
<rect x="27.5" y="125.5" width="9" height="9" rx="2.5" fill="#F8E7BC" stroke="black"/>
<rect x="27.5" y="137.5" width="9" height="9" rx="2.5" fill="#F8CABC" stroke="black"/>
<rect x="27.5" y="149.5" width="9" height="9" rx="2.5" fill="#F8BCBC" stroke="black"/>
<rect x="39" y="62" width="12" height="99" rx="3" fill="#D9D9D9"/>
<rect x="40.5" y="64.5" width="9" height="9" rx="2.5" fill="#C8BCF8" stroke="black"/>
<rect x="40.5" y="76.5" width="9" height="9" rx="2.5" fill="#BCC9F8" stroke="black"/>
<rect x="40.5" y="88.5" width="9" height="9" rx="2.5" fill="#BCE2F8" stroke="black"/>
<rect x="40.5" y="100.5" width="9" height="9" rx="2.5" fill="#BCF8E2" stroke="black"/>
<rect x="40.5" y="113.5" width="9" height="9" rx="2.5" fill="#F3F8BC" stroke="black"/>
<rect x="40.5" y="125.5" width="9" height="9" rx="2.5" fill="#F8E7BC" stroke="black"/>
<rect x="40.5" y="137.5" width="9" height="9" rx="2.5" fill="#F8CABC" stroke="black"/>
<rect x="40.5" y="149.5" width="9" height="9" rx="2.5" fill="#F8BCBC" stroke="black"/>
<rect x="52" y="62" width="12" height="99" rx="3" fill="#D9D9D9"/>
<rect x="53.5" y="64.5" width="9" height="9" rx="2.5" fill="#C8BCF8" stroke="black"/>
<rect x="53.5" y="76.5" width="9" height="9" rx="2.5" fill="#BCC9F8" stroke="black"/>
<rect x="53.5" y="88.5" width="9" height="9" rx="2.5" fill="#BCE2F8" stroke="black"/>
<rect x="53.5" y="100.5" width="9" height="9" rx="2.5" fill="#BCF8E2" stroke="black"/>
<rect x="53.5" y="113.5" width="9" height="9" rx="2.5" fill="#F3F8BC" stroke="black"/>
<rect x="53.5" y="125.5" width="9" height="9" rx="2.5" fill="#F8E7BC" stroke="black"/>
<rect x="53.5" y="137.5" width="9" height="9" rx="2.5" fill="#F8CABC" stroke="black"/>
<rect x="53.5" y="149.5" width="9" height="9" rx="2.5" fill="#F8BCBC" stroke="black"/>
<rect x="65" y="62" width="12" height="99" rx="3" fill="#D9D9D9"/>
<rect x="66.5" y="64.5" width="9" height="9" rx="2.5" fill="#C8BCF8" stroke="black"/>
<rect x="66.5" y="76.5" width="9" height="9" rx="2.5" fill="#BCC9F8" stroke="black"/>
<rect x="66.5" y="88.5" width="9" height="9" rx="2.5" fill="#BCE2F8" stroke="black"/>
<rect x="66.5" y="100.5" width="9" height="9" rx="2.5" fill="#BCF8E2" stroke="black"/>
<rect x="66.5" y="113.5" width="9" height="9" rx="2.5" fill="#F3F8BC" stroke="black"/>
<rect x="66.5" y="125.5" width="9" height="9" rx="2.5" fill="#F8E7BC" stroke="black"/>
<rect x="66.5" y="137.5" width="9" height="9" rx="2.5" fill="#F8CABC" stroke="black"/>
<rect x="66.5" y="149.5" width="9" height="9" rx="2.5" fill="#F8BCBC" stroke="black"/>
<rect x="78" y="62" width="12" height="99" rx="3" fill="#D9D9D9"/>
<rect x="79.5" y="64.5" width="9" height="9" rx="2.5" fill="#C8BCF8" stroke="black"/>
<rect x="79.5" y="76.5" width="9" height="9" rx="2.5" fill="#BCC9F8" stroke="black"/>
<rect x="79.5" y="88.5" width="9" height="9" rx="2.5" fill="#BCE2F8" stroke="black"/>
<rect x="79.5" y="100.5" width="9" height="9" rx="2.5" fill="#BCF8E2" stroke="black"/>
<rect x="79.5" y="113.5" width="9" height="9" rx="2.5" fill="#F3F8BC" stroke="black"/>
<rect x="79.5" y="125.5" width="9" height="9" rx="2.5" fill="#F8E7BC" stroke="black"/>
<rect x="79.5" y="137.5" width="9" height="9" rx="2.5" fill="#F8CABC" stroke="black"/>
<rect x="79.5" y="149.5" width="9" height="9" rx="2.5" fill="#F8BCBC" stroke="black"/>
<rect x="91" y="62" width="12" height="99" rx="3" fill="#D9D9D9"/>
<rect x="92.5" y="64.5" width="9" height="9" rx="2.5" fill="#C8BCF8" stroke="black"/>
<rect x="92.5" y="76.5" width="9" height="9" rx="2.5" fill="#BCC9F8" stroke="black"/>
<rect x="92.5" y="88.5" width="9" height="9" rx="2.5" fill="#BCE2F8" stroke="black"/>
<rect x="92.5" y="100.5" width="9" height="9" rx="2.5" fill="#BCF8E2" stroke="black"/>
<rect x="92.5" y="113.5" width="9" height="9" rx="2.5" fill="#F3F8BC" stroke="black"/>
<rect x="92.5" y="125.5" width="9" height="9" rx="2.5" fill="#F8E7BC" stroke="black"/>
<rect x="92.5" y="137.5" width="9" height="9" rx="2.5" fill="#F8CABC" stroke="black"/>
<rect x="92.5" y="149.5" width="9" height="9" rx="2.5" fill="#F8BCBC" stroke="black"/>
<path d="M108 109.5C107.724 109.5 107.5 109.724 107.5 110C107.5 110.276 107.724 110.5 108 110.5V109.5ZM130 110L125 107.113V112.887L130 110ZM108 110.5H125.5V109.5H108V110.5Z" fill="black"/>
<path d="M231 109.5C230.724 109.5 230.5 109.724 230.5 110C230.5 110.276 230.724 110.5 231 110.5V109.5ZM253 110L248 107.113V112.887L253 110ZM231 110.5H248.5V109.5H231V110.5Z" fill="black"/>
<path d="M294 109.5C293.724 109.5 293.5 109.724 293.5 110C293.5 110.276 293.724 110.5 294 110.5V109.5ZM316 110L311 107.113V112.887L316 110ZM294 110.5H311.5V109.5H294V110.5Z" fill="black"/>
<path d="M180 54L182.887 49H177.113L180 54ZM179.5 38V49.5H180.5V38H179.5Z" fill="black"/>
<path d="M180 16L182.887 11H177.113L180 16ZM179.5 0V11.5H180.5V0L179.5 0Z" fill="black"/>
<path d="M169 27L164 24.1132V29.8868L169 27ZM154 27.5L164.5 27.5V26.5L154 26.5V27.5Z" fill="black"/>
<path d="M51.2422 25.1016C51.2005 24.7318 51.0286 24.4453 50.7266 24.2422C50.4245 24.0365 50.0443 23.9336 49.5859 23.9336C49.2578 23.9336 48.974 23.9857 48.7344 24.0898C48.4948 24.1914 48.3086 24.332 48.1758 24.5117C48.0456 24.6888 47.9805 24.8906 47.9805 25.1172C47.9805 25.3073 48.0247 25.4714 48.1133 25.6094C48.2044 25.7474 48.3229 25.8633 48.4688 25.957C48.6172 26.0482 48.776 26.125 48.9453 26.1875C49.1146 26.2474 49.2773 26.2969 49.4336 26.3359L50.2148 26.5391C50.4701 26.6016 50.7318 26.6862 51 26.793C51.2682 26.8997 51.5169 27.0404 51.7461 27.2148C51.9753 27.3893 52.1602 27.6055 52.3008 27.8633C52.444 28.1211 52.5156 28.4297 52.5156 28.7891C52.5156 29.2422 52.3984 29.6445 52.1641 29.9961C51.9323 30.3477 51.5951 30.625 51.1523 30.8281C50.7122 31.0313 50.1797 31.1328 49.5547 31.1328C48.9557 31.1328 48.4375 31.0378 48 30.8477C47.5625 30.6576 47.2201 30.388 46.9727 30.0391C46.7253 29.6875 46.5885 29.2708 46.5625 28.7891H47.7734C47.7969 29.0781 47.8906 29.319 48.0547 29.5117C48.2214 29.7018 48.4336 29.8437 48.6914 29.9375C48.9518 30.0286 49.237 30.0742 49.5469 30.0742C49.888 30.0742 50.1914 30.0208 50.457 29.9141C50.7253 29.8047 50.9362 29.6536 51.0898 29.4609C51.2435 29.2656 51.3203 29.0378 51.3203 28.7773C51.3203 28.5404 51.2526 28.3464 51.1172 28.1953C50.9844 28.0443 50.8034 27.9193 50.5742 27.8203C50.3477 27.7214 50.0911 27.6341 49.8047 27.5586L48.8594 27.3008C48.2188 27.1263 47.7109 26.8698 47.3359 26.5312C46.9635 26.1927 46.7773 25.7448 46.7773 25.1875C46.7773 24.7266 46.9023 24.3242 47.1523 23.9805C47.4023 23.6367 47.7409 23.3698 48.168 23.1797C48.5951 22.987 49.0768 22.8906 49.6133 22.8906C50.1549 22.8906 50.6328 22.9857 51.0469 23.1758C51.4635 23.3659 51.7917 23.6276 52.0313 23.9609C52.2708 24.2917 52.3958 24.6719 52.4063 25.1016H51.2422ZM56.4502 31.1211C55.859 31.1211 55.3499 30.9948 54.9229 30.7422C54.4984 30.487 54.1702 30.1289 53.9385 29.668C53.7093 29.2044 53.5947 28.6615 53.5947 28.0391C53.5947 27.4245 53.7093 26.8828 53.9385 26.4141C54.1702 25.9453 54.4932 25.5794 54.9072 25.3164C55.3239 25.0534 55.8109 24.9219 56.3682 24.9219C56.7067 24.9219 57.0348 24.9779 57.3525 25.0898C57.6702 25.2018 57.9554 25.3776 58.208 25.6172C58.4606 25.8568 58.6598 26.168 58.8057 26.5508C58.9515 26.931 59.0244 27.3932 59.0244 27.9375V28.3516H54.2549V27.4766H57.8799C57.8799 27.1693 57.8174 26.8971 57.6924 26.6602C57.5674 26.4206 57.3916 26.2318 57.165 26.0937C56.9411 25.9557 56.6781 25.8867 56.376 25.8867C56.0479 25.8867 55.7614 25.9674 55.5166 26.1289C55.2744 26.2878 55.0869 26.4961 54.9541 26.7539C54.8239 27.0091 54.7588 27.2865 54.7588 27.5859V28.2695C54.7588 28.6706 54.8291 29.0117 54.9697 29.293C55.113 29.5742 55.3122 29.7891 55.5674 29.9375C55.8226 30.0833 56.1208 30.1562 56.4619 30.1562C56.6833 30.1562 56.8851 30.125 57.0674 30.0625C57.2497 29.9974 57.4072 29.901 57.54 29.7734C57.6729 29.6458 57.7744 29.4883 57.8447 29.3008L58.9502 29.5C58.8617 29.8255 58.7028 30.1107 58.4736 30.3555C58.2471 30.5977 57.9619 30.7865 57.6182 30.9219C57.277 31.0547 56.8877 31.1211 56.4502 31.1211ZM64.8164 26.4648L63.7578 26.6523C63.7135 26.5169 63.6432 26.388 63.5469 26.2656C63.4531 26.1432 63.3255 26.043 63.1641 25.9648C63.0026 25.8867 62.8008 25.8477 62.5586 25.8477C62.2279 25.8477 61.9518 25.9219 61.7305 26.0703C61.5091 26.2161 61.3984 26.4049 61.3984 26.6367C61.3984 26.8372 61.4727 26.9987 61.6211 27.1211C61.7695 27.2435 62.0091 27.3437 62.3398 27.4219L63.293 27.6406C63.8451 27.7682 64.2565 27.9648 64.5273 28.2305C64.7982 28.4961 64.9336 28.8411 64.9336 29.2656C64.9336 29.625 64.8294 29.9453 64.6211 30.2266C64.4154 30.5052 64.1276 30.724 63.7578 30.8828C63.3906 31.0417 62.9648 31.1211 62.4805 31.1211C61.8086 31.1211 61.2604 30.9779 60.8359 30.6914C60.4115 30.4023 60.151 29.9922 60.0547 29.4609L61.1836 29.2891C61.2539 29.5833 61.3984 29.806 61.6172 29.957C61.8359 30.1055 62.1211 30.1797 62.4727 30.1797C62.8555 30.1797 63.1615 30.1003 63.3906 29.9414C63.6198 29.7799 63.7344 29.5833 63.7344 29.3516C63.7344 29.1641 63.6641 29.0065 63.5234 28.8789C63.3854 28.7513 63.1732 28.6549 62.8867 28.5898L61.8711 28.3672C61.3112 28.2396 60.8971 28.0365 60.6289 27.7578C60.3633 27.4792 60.2305 27.1263 60.2305 26.6992C60.2305 26.3451 60.3294 26.0352 60.5273 25.7695C60.7253 25.5039 60.9987 25.2969 61.3477 25.1484C61.6966 24.9974 62.0964 24.9219 62.5469 24.9219C63.1953 24.9219 63.7057 25.0625 64.0781 25.3437C64.4505 25.6224 64.6966 25.9961 64.8164 26.4648ZM70.7139 26.4648L69.6553 26.6523C69.611 26.5169 69.5407 26.388 69.4443 26.2656C69.3506 26.1432 69.223 26.043 69.0615 25.9648C68.9001 25.8867 68.6982 25.8477 68.4561 25.8477C68.1253 25.8477 67.8493 25.9219 67.6279 26.0703C67.4066 26.2161 67.2959 26.4049 67.2959 26.6367C67.2959 26.8372 67.3701 26.9987 67.5186 27.1211C67.667 27.2435 67.9066 27.3437 68.2373 27.4219L69.1904 27.6406C69.7425 27.7682 70.154 27.9648 70.4248 28.2305C70.6956 28.4961 70.8311 28.8411 70.8311 29.2656C70.8311 29.625 70.7269 29.9453 70.5186 30.2266C70.3128 30.5052 70.0251 30.724 69.6553 30.8828C69.2881 31.0417 68.8623 31.1211 68.3779 31.1211C67.7061 31.1211 67.1579 30.9779 66.7334 30.6914C66.3089 30.4023 66.0485 29.9922 65.9521 29.4609L67.0811 29.2891C67.1514 29.5833 67.2959 29.806 67.5146 29.957C67.7334 30.1055 68.0186 30.1797 68.3701 30.1797C68.7529 30.1797 69.0589 30.1003 69.2881 29.9414C69.5173 29.7799 69.6318 29.5833 69.6318 29.3516C69.6318 29.1641 69.5615 29.0065 69.4209 28.8789C69.2829 28.7513 69.0706 28.6549 68.7842 28.5898L67.7686 28.3672C67.2087 28.2396 66.7946 28.0365 66.5264 27.7578C66.2607 27.4792 66.1279 27.1263 66.1279 26.6992C66.1279 26.3451 66.2269 26.0352 66.4248 25.7695C66.6227 25.5039 66.8962 25.2969 67.2451 25.1484C67.5941 24.9974 67.9938 24.9219 68.4443 24.9219C69.0928 24.9219 69.6032 25.0625 69.9756 25.3437C70.348 25.6224 70.5941 25.9961 70.7139 26.4648ZM72.1152 31V25H73.2832V31H72.1152ZM72.7051 24.0742C72.502 24.0742 72.3275 24.0065 72.1816 23.8711C72.0384 23.7331 71.9668 23.569 71.9668 23.3789C71.9668 23.1862 72.0384 23.0221 72.1816 22.8867C72.3275 22.7487 72.502 22.6797 72.7051 22.6797C72.9082 22.6797 73.0814 22.7487 73.2246 22.8867C73.3704 23.0221 73.4434 23.1862 73.4434 23.3789C73.4434 23.569 73.3704 23.7331 73.2246 23.8711C73.0814 24.0065 72.9082 24.0742 72.7051 24.0742ZM77.3818 31.1211C76.8193 31.1211 76.3285 30.9922 75.9092 30.7344C75.4899 30.4766 75.1644 30.1159 74.9326 29.6523C74.7008 29.1888 74.585 28.6471 74.585 28.0273C74.585 27.4049 74.7008 26.8607 74.9326 26.3945C75.1644 25.9284 75.4899 25.5664 75.9092 25.3086C76.3285 25.0508 76.8193 24.9219 77.3818 24.9219C77.9443 24.9219 78.4352 25.0508 78.8545 25.3086C79.2738 25.5664 79.5993 25.9284 79.8311 26.3945C80.0628 26.8607 80.1787 27.4049 80.1787 28.0273C80.1787 28.6471 80.0628 29.1888 79.8311 29.6523C79.5993 30.1159 79.2738 30.4766 78.8545 30.7344C78.4352 30.9922 77.9443 31.1211 77.3818 31.1211ZM77.3857 30.1406C77.7503 30.1406 78.0524 30.0443 78.292 29.8516C78.5316 29.6589 78.7087 29.4023 78.8232 29.082C78.9404 28.7617 78.999 28.4089 78.999 28.0234C78.999 27.6406 78.9404 27.2891 78.8232 26.9687C78.7087 26.6458 78.5316 26.3867 78.292 26.1914C78.0524 25.9961 77.7503 25.8984 77.3857 25.8984C77.0186 25.8984 76.7139 25.9961 76.4717 26.1914C76.2321 26.3867 76.0537 26.6458 75.9365 26.9687C75.8219 27.2891 75.7646 27.6406 75.7646 28.0234C75.7646 28.4089 75.8219 28.7617 75.9365 29.082C76.0537 29.4023 76.2321 29.6589 76.4717 29.8516C76.7139 30.0443 77.0186 30.1406 77.3857 30.1406ZM82.6504 27.4375V31H81.4824V25H82.6035V25.9766H82.6777C82.8158 25.6589 83.0319 25.4036 83.3262 25.2109C83.623 25.0182 83.9967 24.9219 84.4473 24.9219C84.8561 24.9219 85.2142 25.0078 85.5215 25.1797C85.8288 25.349 86.0671 25.6016 86.2363 25.9375C86.4056 26.2734 86.4902 26.6888 86.4902 27.1836V31H85.3223V27.3242C85.3223 26.8893 85.209 26.5495 84.9824 26.3047C84.7559 26.0573 84.4447 25.9336 84.0488 25.9336C83.778 25.9336 83.5371 25.9922 83.3262 26.1094C83.1178 26.2266 82.9525 26.3984 82.8301 26.625C82.7103 26.849 82.6504 27.1198 82.6504 27.4375ZM91.0615 31V23H96.0771V24.0391H92.2686V26.4766H95.8154V27.5117H92.2686V29.9609H96.124V31H91.0615ZM97.5957 31V25H98.7168V25.9766H98.791C98.916 25.6458 99.1204 25.388 99.4043 25.2031C99.6882 25.0156 100.028 24.9219 100.424 24.9219C100.825 24.9219 101.161 25.0156 101.432 25.2031C101.705 25.3906 101.907 25.6484 102.037 25.9766H102.1C102.243 25.6562 102.471 25.401 102.783 25.2109C103.096 25.0182 103.468 24.9219 103.9 24.9219C104.445 24.9219 104.889 25.0924 105.232 25.4336C105.579 25.7747 105.752 26.2891 105.752 26.9766V31H104.584V27.0859C104.584 26.6797 104.473 26.3854 104.252 26.2031C104.031 26.0208 103.766 25.9297 103.459 25.9297C103.079 25.9297 102.783 26.0469 102.572 26.2812C102.361 26.513 102.256 26.8112 102.256 27.1758V31H101.092V27.0117C101.092 26.6862 100.99 26.4245 100.787 26.2266C100.584 26.0286 100.32 25.9297 99.9941 25.9297C99.7728 25.9297 99.5684 25.9883 99.3809 26.1055C99.196 26.2201 99.0462 26.3802 98.9316 26.5859C98.8197 26.7917 98.7637 27.0299 98.7637 27.3008V31H97.5957ZM107.411 31V23H108.579V25.9727H108.649C108.717 25.8477 108.815 25.7031 108.942 25.5391C109.07 25.375 109.247 25.2318 109.474 25.1094C109.7 24.9844 110 24.9219 110.372 24.9219C110.856 24.9219 111.289 25.0443 111.669 25.2891C112.049 25.5339 112.347 25.8867 112.563 26.3477C112.782 26.8086 112.892 27.3633 112.892 28.0117C112.892 28.6602 112.784 29.2161 112.567 29.6797C112.351 30.1406 112.054 30.4961 111.677 30.7461C111.299 30.9935 110.868 31.1172 110.384 31.1172C110.019 31.1172 109.721 31.056 109.489 30.9336C109.26 30.8112 109.08 30.668 108.95 30.5039C108.82 30.3398 108.72 30.194 108.649 30.0664H108.552V31H107.411ZM108.556 28C108.556 28.4219 108.617 28.7917 108.739 29.1094C108.862 29.4271 109.039 29.6758 109.271 29.8555C109.502 30.0326 109.786 30.1211 110.122 30.1211C110.471 30.1211 110.763 30.0286 110.997 29.8437C111.231 29.6562 111.409 29.4023 111.528 29.082C111.651 28.7617 111.712 28.401 111.712 28C111.712 27.6042 111.652 27.2487 111.532 26.9336C111.415 26.6185 111.238 26.3698 111.001 26.1875C110.767 26.0052 110.474 25.9141 110.122 25.9141C109.784 25.9141 109.497 26.0013 109.263 26.1758C109.031 26.3503 108.855 26.5937 108.735 26.9062C108.616 27.2187 108.556 27.5833 108.556 28ZM116.789 31.1211C116.198 31.1211 115.689 30.9948 115.262 30.7422C114.837 30.487 114.509 30.1289 114.277 29.668C114.048 29.2044 113.934 28.6615 113.934 28.0391C113.934 27.4245 114.048 26.8828 114.277 26.4141C114.509 25.9453 114.832 25.5794 115.246 25.3164C115.663 25.0534 116.15 24.9219 116.707 24.9219C117.046 24.9219 117.374 24.9779 117.691 25.0898C118.009 25.2018 118.294 25.3776 118.547 25.6172C118.799 25.8568 118.999 26.168 119.145 26.5508C119.29 26.931 119.363 27.3932 119.363 27.9375V28.3516H114.594V27.4766H118.219C118.219 27.1693 118.156 26.8971 118.031 26.6602C117.906 26.4206 117.73 26.2318 117.504 26.0937C117.28 25.9557 117.017 25.8867 116.715 25.8867C116.387 25.8867 116.1 25.9674 115.855 26.1289C115.613 26.2878 115.426 26.4961 115.293 26.7539C115.163 27.0091 115.098 27.2865 115.098 27.5859V28.2695C115.098 28.6706 115.168 29.0117 115.309 29.293C115.452 29.5742 115.651 29.7891 115.906 29.9375C116.161 30.0833 116.46 30.1562 116.801 30.1562C117.022 30.1562 117.224 30.125 117.406 30.0625C117.589 29.9974 117.746 29.901 117.879 29.7734C118.012 29.6458 118.113 29.4883 118.184 29.3008L119.289 29.5C119.201 29.8255 119.042 30.1107 118.813 30.3555C118.586 30.5977 118.301 30.7865 117.957 30.9219C117.616 31.0547 117.227 31.1211 116.789 31.1211ZM122.905 31.1172C122.421 31.1172 121.989 30.9935 121.608 30.7461C121.231 30.4961 120.934 30.1406 120.718 29.6797C120.504 29.2161 120.397 28.6602 120.397 28.0117C120.397 27.3633 120.506 26.8086 120.722 26.3477C120.94 25.8867 121.24 25.5339 121.62 25.2891C122 25.0443 122.431 24.9219 122.913 24.9219C123.285 24.9219 123.585 24.9844 123.812 25.1094C124.041 25.2318 124.218 25.375 124.343 25.5391C124.47 25.7031 124.569 25.8477 124.64 25.9727H124.71V23H125.878V31H124.737V30.0664H124.64C124.569 30.194 124.468 30.3398 124.335 30.5039C124.205 30.668 124.025 30.8112 123.796 30.9336C123.567 31.056 123.27 31.1172 122.905 31.1172ZM123.163 30.1211C123.499 30.1211 123.783 30.0326 124.015 29.8555C124.249 29.6758 124.426 29.4271 124.546 29.1094C124.668 28.7917 124.729 28.4219 124.729 28C124.729 27.5833 124.67 27.2187 124.55 26.9062C124.43 26.5937 124.254 26.3503 124.022 26.1758C123.791 26.0013 123.504 25.9141 123.163 25.9141C122.812 25.9141 122.519 26.0052 122.284 26.1875C122.05 26.3698 121.873 26.6185 121.753 26.9336C121.636 27.2487 121.577 27.6042 121.577 28C121.577 28.401 121.637 28.7617 121.757 29.082C121.877 29.4023 122.054 29.6562 122.288 29.8437C122.525 30.0286 122.817 30.1211 123.163 30.1211ZM129.791 31.1172C129.307 31.1172 128.874 30.9935 128.494 30.7461C128.117 30.4961 127.82 30.1406 127.604 29.6797C127.39 29.2161 127.283 28.6602 127.283 28.0117C127.283 27.3633 127.391 26.8086 127.607 26.3477C127.826 25.8867 128.126 25.5339 128.506 25.2891C128.886 25.0443 129.317 24.9219 129.799 24.9219C130.171 24.9219 130.471 24.9844 130.697 25.1094C130.926 25.2318 131.104 25.375 131.229 25.5391C131.356 25.7031 131.455 25.8477 131.525 25.9727H131.596V23H132.764V31H131.623V30.0664H131.525C131.455 30.194 131.354 30.3398 131.221 30.5039C131.09 30.668 130.911 30.8112 130.682 30.9336C130.452 31.056 130.156 31.1172 129.791 31.1172ZM130.049 30.1211C130.385 30.1211 130.669 30.0326 130.9 29.8555C131.135 29.6758 131.312 29.4271 131.432 29.1094C131.554 28.7917 131.615 28.4219 131.615 28C131.615 27.5833 131.555 27.2187 131.436 26.9062C131.316 26.5937 131.14 26.3503 130.908 26.1758C130.676 26.0013 130.39 25.9141 130.049 25.9141C129.697 25.9141 129.404 26.0052 129.17 26.1875C128.936 26.3698 128.758 26.6185 128.639 26.9336C128.521 27.2487 128.463 27.6042 128.463 28C128.463 28.401 128.523 28.7617 128.643 29.082C128.762 29.4023 128.939 29.6562 129.174 29.8437C129.411 30.0286 129.702 30.1211 130.049 30.1211ZM134.431 31V25H135.599V31H134.431ZM135.021 24.0742C134.817 24.0742 134.643 24.0065 134.497 23.8711C134.354 23.7331 134.282 23.569 134.282 23.3789C134.282 23.1862 134.354 23.0221 134.497 22.8867C134.643 22.7487 134.817 22.6797 135.021 22.6797C135.224 22.6797 135.397 22.7487 135.54 22.8867C135.686 23.0221 135.759 23.1862 135.759 23.3789C135.759 23.569 135.686 23.7331 135.54 23.8711C135.397 24.0065 135.224 24.0742 135.021 24.0742ZM138.338 27.4375V31H137.17V25H138.291V25.9766H138.365C138.503 25.6589 138.719 25.4036 139.014 25.2109C139.311 25.0182 139.684 24.9219 140.135 24.9219C140.544 24.9219 140.902 25.0078 141.209 25.1797C141.516 25.349 141.755 25.6016 141.924 25.9375C142.093 26.2734 142.178 26.6888 142.178 27.1836V31H141.01V27.3242C141.01 26.8893 140.896 26.5495 140.67 26.3047C140.443 26.0573 140.132 25.9336 139.736 25.9336C139.465 25.9336 139.225 25.9922 139.014 26.1094C138.805 26.2266 138.64 26.3984 138.518 26.625C138.398 26.849 138.338 27.1198 138.338 27.4375ZM146.26 33.375C145.783 33.375 145.373 33.3125 145.029 33.1875C144.688 33.0625 144.41 32.8971 144.193 32.6914C143.977 32.4857 143.816 32.2604 143.709 32.0156L144.713 31.6016C144.783 31.7161 144.877 31.8372 144.994 31.9648C145.114 32.0951 145.275 32.2057 145.479 32.2969C145.684 32.388 145.949 32.4336 146.271 32.4336C146.714 32.4336 147.08 32.3255 147.369 32.1094C147.658 31.8958 147.803 31.5547 147.803 31.0859V29.9062H147.729C147.658 30.0339 147.557 30.1758 147.424 30.332C147.294 30.4883 147.114 30.6237 146.885 30.7383C146.656 30.8529 146.357 30.9102 145.99 30.9102C145.516 30.9102 145.089 30.7995 144.709 30.5781C144.331 30.3542 144.032 30.0247 143.811 29.5898C143.592 29.1523 143.482 28.6146 143.482 27.9766C143.482 27.3385 143.59 26.7917 143.807 26.3359C144.025 25.8802 144.325 25.5312 144.705 25.2891C145.085 25.0443 145.516 24.9219 145.998 24.9219C146.37 24.9219 146.671 24.9844 146.9 25.1094C147.13 25.2318 147.308 25.375 147.436 25.5391C147.566 25.7031 147.666 25.8477 147.736 25.9727H147.822V25H148.967V31.1328C148.967 31.6484 148.847 32.0716 148.607 32.4023C148.368 32.7331 148.044 32.9779 147.635 33.1367C147.229 33.2956 146.77 33.375 146.26 33.375ZM146.248 29.9414C146.584 29.9414 146.868 29.8633 147.1 29.707C147.334 29.5482 147.511 29.3216 147.631 29.0273C147.753 28.7305 147.814 28.375 147.814 27.9609C147.814 27.5573 147.755 27.2018 147.635 26.8945C147.515 26.5872 147.339 26.3477 147.107 26.1758C146.876 26.0013 146.589 25.9141 146.248 25.9141C145.896 25.9141 145.604 26.0052 145.369 26.1875C145.135 26.3672 144.958 26.612 144.838 26.9219C144.721 27.2318 144.662 27.5781 144.662 27.9609C144.662 28.3542 144.722 28.6992 144.842 28.9961C144.962 29.293 145.139 29.5247 145.373 29.6914C145.61 29.8581 145.902 29.9414 146.248 29.9414Z" fill="black"/>
<path d="M15.8789 175V167H17.0859V173.961H20.7109V175H15.8789ZM23.7402 175.133C23.36 175.133 23.0163 175.063 22.709 174.922C22.4017 174.779 22.1582 174.572 21.9785 174.301C21.8014 174.03 21.7129 173.698 21.7129 173.305C21.7129 172.966 21.778 172.687 21.9082 172.469C22.0384 172.25 22.2142 172.077 22.4355 171.949C22.6569 171.822 22.9043 171.725 23.1777 171.66C23.4512 171.595 23.7298 171.546 24.0137 171.512C24.373 171.47 24.6647 171.436 24.8887 171.41C25.1126 171.382 25.2754 171.336 25.377 171.273C25.4785 171.211 25.5293 171.109 25.5293 170.969V170.941C25.5293 170.6 25.4329 170.336 25.2402 170.148C25.0501 169.961 24.7663 169.867 24.3887 169.867C23.9954 169.867 23.6855 169.954 23.459 170.129C23.235 170.301 23.0801 170.492 22.9941 170.703L21.8965 170.453C22.0267 170.089 22.2168 169.794 22.4668 169.57C22.7194 169.344 23.0098 169.18 23.3379 169.078C23.666 168.974 24.0111 168.922 24.373 168.922C24.6126 168.922 24.8665 168.951 25.1348 169.008C25.4056 169.062 25.6582 169.164 25.8926 169.312C26.1296 169.461 26.3236 169.673 26.4746 169.949C26.6257 170.223 26.7012 170.578 26.7012 171.016V175H25.5605V174.18H25.5137C25.4382 174.331 25.3249 174.479 25.1738 174.625C25.0228 174.771 24.8288 174.892 24.5918 174.988C24.3548 175.085 24.071 175.133 23.7402 175.133ZM23.9941 174.195C24.3171 174.195 24.5931 174.132 24.8223 174.004C25.054 173.876 25.2298 173.71 25.3496 173.504C25.472 173.296 25.5332 173.073 25.5332 172.836V172.062C25.4915 172.104 25.4108 172.143 25.291 172.18C25.1738 172.214 25.0397 172.243 24.8887 172.27C24.7376 172.293 24.5905 172.315 24.4473 172.336C24.304 172.354 24.1842 172.37 24.0879 172.383C23.8613 172.411 23.6543 172.46 23.4668 172.527C23.2819 172.595 23.1335 172.693 23.0215 172.82C22.9121 172.945 22.8574 173.112 22.8574 173.32C22.8574 173.609 22.9642 173.828 23.1777 173.977C23.3913 174.122 23.6634 174.195 23.9941 174.195ZM31.0576 169V169.937H27.7803V169H31.0576ZM28.6592 167.562H29.8271V173.238C29.8271 173.465 29.861 173.635 29.9287 173.75C29.9964 173.862 30.0837 173.939 30.1904 173.98C30.2998 174.02 30.4183 174.039 30.5459 174.039C30.6396 174.039 30.7217 174.033 30.792 174.02C30.8623 174.007 30.917 173.996 30.9561 173.988L31.167 174.953C31.0993 174.979 31.0029 175.005 30.8779 175.031C30.7529 175.06 30.5967 175.076 30.4092 175.078C30.1019 175.083 29.8154 175.029 29.5498 174.914C29.2842 174.799 29.0693 174.622 28.9053 174.383C28.7412 174.143 28.6592 173.842 28.6592 173.48V167.562ZM34.8711 175.121C34.2799 175.121 33.7708 174.995 33.3438 174.742C32.9193 174.487 32.5911 174.129 32.3594 173.668C32.1302 173.204 32.0156 172.661 32.0156 172.039C32.0156 171.424 32.1302 170.883 32.3594 170.414C32.5911 169.945 32.9141 169.579 33.3281 169.316C33.7448 169.053 34.2318 168.922 34.7891 168.922C35.1276 168.922 35.4557 168.978 35.7734 169.09C36.0911 169.202 36.3763 169.378 36.6289 169.617C36.8815 169.857 37.0807 170.168 37.2266 170.551C37.3724 170.931 37.4453 171.393 37.4453 171.937V172.352H32.6758V171.477H36.3008C36.3008 171.169 36.2383 170.897 36.1133 170.66C35.9883 170.421 35.8125 170.232 35.5859 170.094C35.362 169.956 35.099 169.887 34.7969 169.887C34.4688 169.887 34.1823 169.967 33.9375 170.129C33.6953 170.288 33.5078 170.496 33.375 170.754C33.2448 171.009 33.1797 171.286 33.1797 171.586V172.27C33.1797 172.671 33.25 173.012 33.3906 173.293C33.5339 173.574 33.7331 173.789 33.9883 173.937C34.2435 174.083 34.5417 174.156 34.8828 174.156C35.1042 174.156 35.306 174.125 35.4883 174.062C35.6706 173.997 35.8281 173.901 35.9609 173.773C36.0938 173.646 36.1953 173.488 36.2656 173.301L37.3711 173.5C37.2826 173.826 37.1237 174.111 36.8945 174.355C36.668 174.598 36.3828 174.786 36.0391 174.922C35.6979 175.055 35.3086 175.121 34.8711 175.121ZM39.9092 171.437V175H38.7412V169H39.8623V169.977H39.9365C40.0745 169.659 40.2907 169.404 40.585 169.211C40.8818 169.018 41.2555 168.922 41.7061 168.922C42.1149 168.922 42.473 169.008 42.7803 169.18C43.0876 169.349 43.3258 169.602 43.4951 169.937C43.6644 170.273 43.749 170.689 43.749 171.184V175H42.5811V171.324C42.5811 170.889 42.4678 170.549 42.2412 170.305C42.0146 170.057 41.7035 169.934 41.3076 169.934C41.0368 169.934 40.7959 169.992 40.585 170.109C40.3766 170.227 40.2113 170.398 40.0889 170.625C39.9691 170.849 39.9092 171.12 39.9092 171.437ZM48.1162 169V169.937H44.8389V169H48.1162ZM45.7178 167.562H46.8857V173.238C46.8857 173.465 46.9196 173.635 46.9873 173.75C47.055 173.862 47.1423 173.939 47.249 173.98C47.3584 174.02 47.4769 174.039 47.6045 174.039C47.6982 174.039 47.7803 174.033 47.8506 174.02C47.9209 174.007 47.9756 173.996 48.0146 173.988L48.2256 174.953C48.1579 174.979 48.0615 175.005 47.9365 175.031C47.8115 175.06 47.6553 175.076 47.4678 175.078C47.1605 175.083 46.874 175.029 46.6084 174.914C46.3428 174.799 46.1279 174.622 45.9639 174.383C45.7998 174.143 45.7178 173.842 45.7178 173.48V167.562ZM52.0186 168.039V167H58.21V168.039H55.7139V175H54.5107V168.039H52.0186ZM61.1416 175.121C60.5791 175.121 60.0882 174.992 59.6689 174.734C59.2497 174.477 58.9242 174.116 58.6924 173.652C58.4606 173.189 58.3447 172.647 58.3447 172.027C58.3447 171.405 58.4606 170.861 58.6924 170.395C58.9242 169.928 59.2497 169.566 59.6689 169.309C60.0882 169.051 60.5791 168.922 61.1416 168.922C61.7041 168.922 62.195 169.051 62.6143 169.309C63.0335 169.566 63.359 169.928 63.5908 170.395C63.8226 170.861 63.9385 171.405 63.9385 172.027C63.9385 172.647 63.8226 173.189 63.5908 173.652C63.359 174.116 63.0335 174.477 62.6143 174.734C62.195 174.992 61.7041 175.121 61.1416 175.121ZM61.1455 174.141C61.5101 174.141 61.8122 174.044 62.0518 173.852C62.2913 173.659 62.4684 173.402 62.583 173.082C62.7002 172.762 62.7588 172.409 62.7588 172.023C62.7588 171.641 62.7002 171.289 62.583 170.969C62.4684 170.646 62.2913 170.387 62.0518 170.191C61.8122 169.996 61.5101 169.898 61.1455 169.898C60.7783 169.898 60.4736 169.996 60.2314 170.191C59.9919 170.387 59.8135 170.646 59.6963 170.969C59.5817 171.289 59.5244 171.641 59.5244 172.023C59.5244 172.409 59.5817 172.762 59.6963 173.082C59.8135 173.402 59.9919 173.659 60.2314 173.852C60.4736 174.044 60.7783 174.141 61.1455 174.141ZM66.3164 172.965L66.3086 171.539H66.5117L68.9023 169H70.3008L67.5742 171.891H67.3906L66.3164 172.965ZM65.2422 175V167H66.4102V175H65.2422ZM69.0313 175L66.8828 172.148L67.6875 171.332L70.4648 175H69.0313ZM73.7041 175.121C73.113 175.121 72.6038 174.995 72.1768 174.742C71.7523 174.487 71.4242 174.129 71.1924 173.668C70.9632 173.204 70.8486 172.661 70.8486 172.039C70.8486 171.424 70.9632 170.883 71.1924 170.414C71.4242 169.945 71.7471 169.579 72.1611 169.316C72.5778 169.053 73.0648 168.922 73.6221 168.922C73.9606 168.922 74.2887 168.978 74.6064 169.09C74.9242 169.202 75.2093 169.378 75.4619 169.617C75.7145 169.857 75.9137 170.168 76.0596 170.551C76.2054 170.931 76.2783 171.393 76.2783 171.937V172.352H71.5088V171.477H75.1338C75.1338 171.169 75.0713 170.897 74.9463 170.66C74.8213 170.421 74.6455 170.232 74.4189 170.094C74.195 169.956 73.932 169.887 73.6299 169.887C73.3018 169.887 73.0153 169.967 72.7705 170.129C72.5283 170.288 72.3408 170.496 72.208 170.754C72.0778 171.009 72.0127 171.286 72.0127 171.586V172.27C72.0127 172.671 72.083 173.012 72.2236 173.293C72.3669 173.574 72.5661 173.789 72.8213 173.937C73.0765 174.083 73.3747 174.156 73.7158 174.156C73.9372 174.156 74.139 174.125 74.3213 174.062C74.5036 173.997 74.6611 173.901 74.7939 173.773C74.9268 173.646 75.0283 173.488 75.0986 173.301L76.2041 173.5C76.1156 173.826 75.9567 174.111 75.7275 174.355C75.501 174.598 75.2158 174.786 74.8721 174.922C74.5309 175.055 74.1416 175.121 73.7041 175.121ZM78.7422 171.437V175H77.5742V169H78.6953V169.977H78.7695C78.9076 169.659 79.1237 169.404 79.418 169.211C79.7148 169.018 80.0885 168.922 80.5391 168.922C80.9479 168.922 81.306 169.008 81.6133 169.18C81.9206 169.349 82.1589 169.602 82.3281 169.937C82.4974 170.273 82.582 170.689 82.582 171.184V175H81.4141V171.324C81.4141 170.889 81.3008 170.549 81.0742 170.305C80.8477 170.057 80.5365 169.934 80.1406 169.934C79.8698 169.934 79.6289 169.992 79.418 170.109C79.2096 170.227 79.0443 170.398 78.9219 170.625C78.8021 170.849 78.7422 171.12 78.7422 171.437ZM88.6445 170.465L87.5859 170.652C87.5417 170.517 87.4714 170.388 87.375 170.266C87.2813 170.143 87.1536 170.043 86.9922 169.965C86.8307 169.887 86.6289 169.848 86.3867 169.848C86.056 169.848 85.7799 169.922 85.5586 170.07C85.3372 170.216 85.2266 170.405 85.2266 170.637C85.2266 170.837 85.3008 170.999 85.4492 171.121C85.5977 171.243 85.8372 171.344 86.168 171.422L87.1211 171.641C87.6732 171.768 88.0846 171.965 88.3555 172.23C88.6263 172.496 88.7617 172.841 88.7617 173.266C88.7617 173.625 88.6576 173.945 88.4492 174.227C88.2435 174.505 87.9557 174.724 87.5859 174.883C87.2188 175.042 86.793 175.121 86.3086 175.121C85.6367 175.121 85.0885 174.978 84.6641 174.691C84.2396 174.402 83.9792 173.992 83.8828 173.461L85.0117 173.289C85.082 173.583 85.2266 173.806 85.4453 173.957C85.6641 174.105 85.9492 174.18 86.3008 174.18C86.6836 174.18 86.9896 174.1 87.2187 173.941C87.4479 173.78 87.5625 173.583 87.5625 173.352C87.5625 173.164 87.4922 173.007 87.3516 172.879C87.2135 172.751 87.0013 172.655 86.7148 172.59L85.6992 172.367C85.1393 172.24 84.7253 172.036 84.457 171.758C84.1914 171.479 84.0586 171.126 84.0586 170.699C84.0586 170.345 84.1576 170.035 84.3555 169.77C84.5534 169.504 84.8268 169.297 85.1758 169.148C85.5247 168.997 85.9245 168.922 86.375 168.922C87.0234 168.922 87.5339 169.062 87.9063 169.344C88.2786 169.622 88.5247 169.996 88.6445 170.465Z" fill="black"/>
<path d="M179.714 68.7273H180.68L181.49 69.7926L181.703 70.0767L182.91 71.6818H181.944L181.149 70.6165L180.95 70.3466L179.714 68.7273ZM183.208 67.3636C183.208 68.1307 183.07 68.7936 182.793 69.3523C182.516 69.911 182.136 70.3419 181.653 70.6449C181.17 70.9479 180.618 71.0994 179.998 71.0994C179.378 71.0994 178.826 70.9479 178.343 70.6449C177.86 70.3419 177.48 69.911 177.203 69.3523C176.926 68.7936 176.788 68.1307 176.788 67.3636C176.788 66.5966 176.926 65.9337 177.203 65.375C177.48 64.8163 177.86 64.3854 178.343 64.0824C178.826 63.7794 179.378 63.6278 179.998 63.6278C180.618 63.6278 181.17 63.7794 181.653 64.0824C182.136 64.3854 182.516 64.8163 182.793 65.375C183.07 65.9337 183.208 66.5966 183.208 67.3636ZM182.356 67.3636C182.356 66.7339 182.251 66.2024 182.04 65.7692C181.832 65.3359 181.549 65.008 181.191 64.7855C180.836 64.563 180.439 64.4517 179.998 64.4517C179.558 64.4517 179.159 64.563 178.801 64.7855C178.446 65.008 178.163 65.3359 177.953 65.7692C177.744 66.2024 177.64 66.7339 177.64 67.3636C177.64 67.9934 177.744 68.5249 177.953 68.9581C178.163 69.3913 178.446 69.7192 178.801 69.9418C179.159 70.1643 179.558 70.2756 179.998 70.2756C180.439 70.2756 180.836 70.1643 181.191 69.9418C181.549 69.7192 181.832 69.3913 182.04 68.9581C182.251 68.5249 182.356 67.9934 182.356 67.3636Z" fill="black"/>
<path d="M179.482 30.3537V24.2599H180.516V30.3537H179.482ZM176.953 27.8239V26.7898H183.046V27.8239H176.953Z" fill="black"/>
<path d="M134.74 115V107.727H135.621V111.335H135.706L138.973 107.727H140.124L137.07 111.009L140.124 115H139.058L136.53 111.619L135.621 112.642V115H134.74ZM141.562 107.727L143.721 113.849H143.806L145.965 107.727H146.888L144.218 115H143.309L140.638 107.727H141.562Z" fill="black"/>
<path d="M253.5 62C253.5 59.5147 255.515 57.5 258 57.5H289C291.485 57.5 293.5 59.5147 293.5 62V162C293.5 164.485 291.485 166.5 289 166.5H258C255.515 166.5 253.5 164.485 253.5 162V62Z" fill="#DBCEEC" stroke="black"/>
<path d="M260.043 114V106.727H261.14V113.055H264.436V114H260.043ZM265.602 114V108.545H266.664V114H265.602ZM266.139 107.704C265.954 107.704 265.795 107.642 265.663 107.519C265.533 107.394 265.468 107.245 265.468 107.072C265.468 106.897 265.533 106.747 265.663 106.624C265.795 106.499 265.954 106.436 266.139 106.436C266.323 106.436 266.481 106.499 266.611 106.624C266.744 106.747 266.81 106.897 266.81 107.072C266.81 107.245 266.744 107.394 266.611 107.519C266.481 107.642 266.323 107.704 266.139 107.704ZM269.154 110.761V114H268.093V108.545H269.112V109.433H269.179C269.305 109.144 269.501 108.912 269.769 108.737C270.039 108.562 270.378 108.474 270.788 108.474C271.16 108.474 271.485 108.553 271.765 108.709C272.044 108.863 272.261 109.092 272.414 109.398C272.568 109.703 272.645 110.081 272.645 110.531V114H271.583V110.658C271.583 110.263 271.48 109.954 271.275 109.732C271.069 109.507 270.786 109.394 270.426 109.394C270.18 109.394 269.961 109.447 269.769 109.554C269.579 109.661 269.429 109.817 269.318 110.023C269.209 110.226 269.154 110.473 269.154 110.761ZM276.42 114.11C275.883 114.11 275.42 113.995 275.032 113.766C274.646 113.534 274.347 113.208 274.137 112.789C273.928 112.368 273.824 111.874 273.824 111.308C273.824 110.75 273.928 110.257 274.137 109.831C274.347 109.405 274.641 109.072 275.017 108.833C275.396 108.594 275.839 108.474 276.346 108.474C276.653 108.474 276.952 108.525 277.24 108.627C277.529 108.729 277.788 108.889 278.018 109.107C278.248 109.324 278.429 109.607 278.561 109.955C278.694 110.301 278.76 110.721 278.76 111.216V111.592H274.424V110.797H277.72C277.72 110.518 277.663 110.27 277.549 110.055C277.436 109.837 277.276 109.665 277.07 109.54C276.866 109.414 276.627 109.352 276.353 109.352C276.054 109.352 275.794 109.425 275.571 109.572C275.351 109.716 275.181 109.906 275.06 110.14C274.942 110.372 274.882 110.624 274.882 110.896V111.518C274.882 111.882 274.946 112.192 275.074 112.448C275.204 112.704 275.386 112.899 275.618 113.034C275.85 113.167 276.121 113.233 276.431 113.233C276.632 113.233 276.815 113.205 276.981 113.148C277.147 113.089 277.29 113.001 277.411 112.885C277.532 112.769 277.624 112.626 277.688 112.455L278.693 112.636C278.612 112.932 278.468 113.192 278.26 113.414C278.054 113.634 277.794 113.806 277.482 113.929C277.172 114.05 276.818 114.11 276.42 114.11ZM281.526 114.121C281.18 114.121 280.868 114.057 280.588 113.929C280.309 113.799 280.088 113.611 279.924 113.364C279.763 113.118 279.683 112.816 279.683 112.459C279.683 112.151 279.742 111.898 279.86 111.699C279.979 111.5 280.138 111.343 280.34 111.227C280.541 111.111 280.766 111.023 281.014 110.964C281.263 110.905 281.516 110.86 281.774 110.829C282.101 110.791 282.366 110.76 282.57 110.737C282.773 110.71 282.921 110.669 283.014 110.612C283.106 110.555 283.152 110.463 283.152 110.335V110.31C283.152 110 283.065 109.76 282.889 109.589C282.717 109.419 282.459 109.334 282.115 109.334C281.758 109.334 281.476 109.413 281.27 109.572C281.066 109.728 280.926 109.902 280.847 110.094L279.85 109.866C279.968 109.535 280.141 109.268 280.368 109.064C280.598 108.858 280.862 108.709 281.16 108.616C281.458 108.522 281.772 108.474 282.101 108.474C282.319 108.474 282.55 108.5 282.794 108.553C283.04 108.602 283.269 108.695 283.482 108.83C283.698 108.964 283.874 109.157 284.012 109.408C284.149 109.657 284.218 109.98 284.218 110.378V114H283.181V113.254H283.138C283.069 113.392 282.966 113.527 282.829 113.659C282.692 113.792 282.515 113.902 282.3 113.989C282.084 114.077 281.826 114.121 281.526 114.121ZM281.757 113.268C282.05 113.268 282.301 113.21 282.509 113.094C282.72 112.978 282.88 112.827 282.989 112.64C283.1 112.451 283.156 112.248 283.156 112.033V111.33C283.118 111.367 283.044 111.403 282.936 111.436C282.829 111.467 282.707 111.494 282.57 111.518C282.432 111.539 282.299 111.559 282.169 111.578C282.038 111.595 281.929 111.609 281.842 111.621C281.636 111.647 281.448 111.691 281.277 111.752C281.109 111.814 280.974 111.902 280.872 112.018C280.773 112.132 280.723 112.284 280.723 112.473C280.723 112.736 280.82 112.935 281.014 113.07C281.209 113.202 281.456 113.268 281.757 113.268ZM285.632 114V108.545H286.658V109.412H286.715C286.814 109.118 286.989 108.888 287.24 108.719C287.494 108.549 287.78 108.464 288.1 108.464C288.166 108.464 288.244 108.466 288.334 108.471C288.426 108.476 288.499 108.482 288.551 108.489V109.504C288.508 109.492 288.432 109.479 288.324 109.465C288.215 109.449 288.106 109.44 287.997 109.44C287.746 109.44 287.522 109.494 287.326 109.6C287.132 109.704 286.978 109.85 286.864 110.037C286.75 110.222 286.694 110.432 286.694 110.669V114H285.632Z" fill="black"/>
<circle cx="180" cy="27" r="10.5" stroke="black"/>
</svg>
